<svg width="46" height="45" viewBox="0 0 46 45" fill="none" xmlns="http://www.w3.org/2000/svg">
<path d="M44.2968 32.9633L37.5086 17.0879C36.2724 14.1818 34.4289 12.5335 32.3252 12.4251C30.2432 12.3167 28.2263 13.7697 26.6865 16.5457L22.5658 23.9413C21.6983 25.5028 20.4621 26.4353 19.1175 26.5438C17.7511 26.6739 16.3848 25.9582 15.2787 24.5485L14.8016 23.9413C13.2618 22.0111 11.3533 21.0785 9.4014 21.2737C7.44951 21.4689 5.77957 22.8135 4.67351 25.004L0.921555 32.4862C-0.423075 35.1971 -0.29295 38.3418 1.29024 40.9009C2.87344 43.4601 5.62776 44.9999 8.64233 44.9999H36.3157C39.2219 44.9999 41.9328 43.5468 43.5377 41.1178C45.186 38.6888 45.4462 35.6309 44.2968 32.9633Z" fill="#D9D9D9"/>
<path d="M11.6595 14.6608C15.708 14.6608 18.9898 11.3789 18.9898 7.3304C18.9898 3.28194 15.708 0 11.6595 0C7.61104 0 4.3291 3.28194 4.3291 7.3304C4.3291 11.3789 7.61104 14.6608 11.6595 14.6608Z" fill="#D9D9D9"/>
</svg>
