<svg width="50" height="50" viewBox="0 0 50 50" fill="none" xmlns="http://www.w3.org/2000/svg">
<path opacity="0.4" d="M36.4572 48.2546C29.9428 48.2546 24.6382 42.9757 24.6382 36.441C24.6382 29.9296 29.9195 24.6274 36.4572 24.6274C42.9717 24.6274 48.2763 29.9063 48.2763 36.441C48.2763 42.9757 42.995 48.2546 36.4572 48.2546Z" fill="#D6D6D6"/>
<path opacity="0.4" d="M8.77125 1.74414H17.8915C22.7075 1.74414 25.0341 4.06962 24.9178 8.76715V17.8832C25.0341 22.697 22.7075 25.0225 17.8915 24.9062H8.77125C4.07153 24.9992 1.74493 22.6737 1.74493 17.8599V8.74394C1.74493 4.06967 4.07153 1.74414 8.77125 1.74414Z" fill="#D6D6D6"/>
<path d="M18.0537 16.3017C17.3324 16.3017 16.6577 16.0226 16.0295 15.5575C16.6112 14.6273 17.03 13.5808 17.2394 12.4413H18.0304C18.9843 12.4413 19.7753 11.6506 19.7753 10.6971C19.7753 9.74369 18.9843 8.95302 18.0304 8.95302H15.7271C15.7038 8.95302 15.6806 8.95302 15.6806 8.95302H15.634H15.0291C14.9361 8.06932 14.2148 7.3717 13.3074 7.3717C12.4001 7.3717 11.6788 8.06932 11.5857 8.95302H8.58445C7.63055 8.95302 6.8395 9.74369 6.8395 10.6971C6.8395 11.6506 7.63055 12.4413 8.58445 12.4413H13.6332C12.9352 14.6738 10.9343 16.3017 8.56116 16.3017C7.60726 16.3017 6.81621 17.0923 6.81621 18.0458C6.81621 18.9992 7.60726 19.7899 8.56116 19.7899C10.4457 19.7899 12.1907 19.162 13.6332 18.1155C14.9128 19.1853 16.4483 19.7899 18.0304 19.7899C18.9843 19.7899 19.7753 18.9992 19.7753 18.0458C19.7753 17.0923 19.0076 16.3017 18.0537 16.3017Z" fill="#D6D6D6"/>
<path d="M18.0311 49.9985C8.09655 49.9985 0 41.9057 0 31.9758C0 31.0223 0.791042 30.2317 1.74495 30.2317C2.69885 30.2317 3.48989 31.0223 3.48989 31.9758C3.48989 38.8593 8.28267 44.6266 14.7273 46.1381L14.0992 45.0917C13.6106 44.2545 13.8665 43.1847 14.7041 42.6964C15.5184 42.208 16.6119 42.4638 17.1005 43.301L19.5434 47.3707C19.8691 47.9055 19.8691 48.5799 19.5667 49.1148C19.2409 49.6497 18.6593 49.9985 18.0311 49.9985Z" fill="#D6D6D6"/>
<path d="M48.2778 19.7668C47.3239 19.7668 46.5329 18.9762 46.5329 18.0227C46.5329 11.1392 41.7401 5.37193 35.2954 3.86035L35.9236 4.9068C36.4122 5.74399 36.1563 6.81377 35.3187 7.30212C34.5044 7.79048 33.4109 7.53467 32.9223 6.69747L30.4794 2.62783C30.1536 2.09296 30.1536 1.41856 30.4561 0.883694C30.7586 0.325571 31.3402 0 31.9684 0C41.9029 0 49.9995 8.09277 49.9995 18.0227C50.0228 18.9762 49.2317 19.7668 48.2778 19.7668Z" fill="#D6D6D6"/>
<path d="M42.9945 39.72L38.0156 29.79C37.7132 29.2087 37.1083 28.8133 36.4568 28.8133C35.8054 28.8133 35.2004 29.1854 34.898 29.7668L29.9191 39.6967C29.477 40.5571 29.826 41.6036 30.7101 42.0455C30.966 42.1617 31.222 42.2315 31.4779 42.2315C32.1061 42.2315 32.7343 41.8827 33.0367 41.278L33.4322 40.4874H39.4581L39.8536 41.278C40.2957 42.1385 41.3427 42.4873 42.2035 42.0687C43.0876 41.6269 43.4366 40.5804 42.9945 39.72ZM35.2004 36.9991L36.4798 34.4643L37.7597 36.9991H35.2004Z" fill="#D6D6D6"/>
</svg>
