<svg width="74" height="74" viewBox="0 0 74 74" fill="none" xmlns="http://www.w3.org/2000/svg">
<path d="M27.2279 69.5738H46.7722C63.0591 69.5738 69.5738 63.0591 69.5738 46.7721V27.2278C69.5738 10.9409 63.0591 4.42617 46.7722 4.42617H27.2279C10.9409 4.42617 4.42618 10.9409 4.42618 27.2278V46.7721C4.42618 63.0591 10.9409 69.5738 27.2279 69.5738Z" stroke="#D6D6D6" stroke-width="8.83229" stroke-linecap="round" stroke-linejoin="round"/>
<path d="M46.0392 19.0844C42.3543 19.0844 39.0562 20.876 37 23.6244C34.9438 20.876 31.6457 19.0844 27.9608 19.0844C21.7107 19.0844 16.6414 24.1741 16.6414 30.4649C16.6414 32.8875 17.0282 35.1271 17.7 37.2037C20.9167 47.383 30.8313 53.4702 35.7378 55.1396C36.43 55.3839 37.57 55.3839 38.2622 55.1396C43.1687 53.4702 53.0833 47.383 56.3 37.2037C56.9718 35.1271 57.3586 32.8875 57.3586 30.4649C57.3586 24.1741 52.2893 19.0844 46.0392 19.0844Z" fill="#D6D6D6"/>
</svg>
