<svg width="74" height="74" viewBox="0 0 74 74" fill="none" xmlns="http://www.w3.org/2000/svg">
<path d="M25.6207 59.5928H23.9951C10.9903 59.5928 4.48784 56.3513 4.48784 40.144V23.9366C4.48784 10.9708 10.9903 4.48782 23.9951 4.48782H50.0049C63.0097 4.48782 69.5122 10.9708 69.5122 23.9366V40.144C69.5122 53.1098 63.0097 59.5928 50.0049 59.5928H48.3793C47.3714 59.5928 46.396 60.079 45.7783 60.8894L40.9015 67.3723C38.7557 70.2248 35.2443 70.2248 33.0985 67.3723L28.2217 60.8894C27.7015 60.1762 26.4986 59.5928 25.6207 59.5928Z" stroke="#D6D6D6" stroke-width="8.97232" stroke-miterlimit="10" stroke-linecap="round" stroke-linejoin="round"/>
<path d="M49.9936 33.661H50.0225" stroke="#D6D6D6" stroke-width="11.9631" stroke-linecap="round" stroke-linejoin="round"/>
<path d="M36.9853 33.661H37.0146" stroke="#D6D6D6" stroke-width="11.9631" stroke-linecap="round" stroke-linejoin="round"/>
<path d="M23.9773 33.661H24.0065" stroke="#D6D6D6" stroke-width="11.9631" stroke-linecap="round" stroke-linejoin="round"/>
</svg>
