<svg width="65" height="65" viewBox="0 0 65 65" fill="none" xmlns="http://www.w3.org/2000/svg">
<path d="M46.1175 0H18.8825C7.0525 0 0 7.0525 0 18.8825V46.1175C0 55.25 4.1925 61.5225 11.57 63.895C13.715 64.6425 16.185 65 18.8825 65H46.1175C48.815 65 51.285 64.6425 53.43 63.895C60.8075 61.5225 65 55.25 65 46.1175V18.8825C65 7.0525 57.9475 0 46.1175 0ZM60.125 46.1175C60.125 53.0725 57.395 57.46 51.9025 59.28C48.75 53.0725 41.275 48.6525 32.5 48.6525C23.725 48.6525 16.2825 53.04 13.0975 59.28H13.065C7.6375 57.525 4.875 53.105 4.875 46.15V18.8825C4.875 9.7175 9.7175 4.875 18.8825 4.875H46.1175C55.2825 4.875 60.125 9.7175 60.125 18.8825V46.1175Z" fill="#D6D6D6"/>
<path d="M32.5062 19.5C26.0712 19.5 20.8711 24.7 20.8711 31.135C20.8711 37.57 26.0712 42.8025 32.5062 42.8025C38.9412 42.8025 44.1412 37.57 44.1412 31.135C44.1412 24.7 38.9412 19.5 32.5062 19.5Z" fill="#D6D6D6"/>
</svg>
