<svg width="55" height="52" viewBox="0 0 55 52" fill="none" xmlns="http://www.w3.org/2000/svg">
<path d="M27.4145 33.5732C31.5971 33.5732 34.9875 30.1828 34.9875 26.0002C34.9875 21.8177 31.5971 18.4272 27.4145 18.4272C23.2319 18.4272 19.8415 21.8177 19.8415 26.0002C19.8415 30.1828 23.2319 33.5732 27.4145 33.5732Z" stroke="#D9D9D9" stroke-width="4.28278" stroke-miterlimit="10" stroke-linecap="round" stroke-linejoin="round"/>
<path d="M2.17117 28.2214V23.7785C2.17117 21.1532 4.31686 18.9824 6.96741 18.9824C11.5364 18.9824 13.4045 15.7513 11.1073 11.7881C9.79466 9.51616 10.5772 6.56269 12.8743 5.25004L17.2414 2.75095C19.2357 1.56451 21.8105 2.27132 22.9969 4.26555L23.2746 4.74517C25.5465 8.70837 29.2825 8.70837 31.5797 4.74517L31.8573 4.26555C33.0438 2.27132 35.6186 1.56451 37.6128 2.75095L41.9799 5.25004C44.277 6.56269 45.0596 9.51616 43.7469 11.7881C41.4498 15.7513 43.3178 18.9824 47.8868 18.9824C50.5121 18.9824 52.6831 21.128 52.6831 23.7785V28.2214C52.6831 30.8467 50.5374 33.0176 47.8868 33.0176C43.3178 33.0176 41.4498 36.2487 43.7469 40.2119C45.0596 42.5091 44.277 45.4373 41.9799 46.75L37.6128 49.2491C35.6186 50.4355 33.0438 49.7287 31.8573 47.7345L31.5797 47.2548C29.3078 43.2916 25.5717 43.2916 23.2746 47.2548L22.9969 47.7345C21.8105 49.7287 19.2357 50.4355 17.2414 49.2491L12.8743 46.75C10.5772 45.4373 9.79466 42.4838 11.1073 40.2119C13.4045 36.2487 11.5364 33.0176 6.96741 33.0176C4.31686 33.0176 2.17117 30.8467 2.17117 28.2214Z" stroke="#D9D9D9" stroke-width="4.28278" stroke-miterlimit="10" stroke-linecap="round" stroke-linejoin="round"/>
</svg>
